<svg
   width="130"
   height="48"
   viewBox="0 0 106.18157 32.963921"
   version="1.1"
   id="sairbnb"
   inkscape:version="1.1.2 (0a00cf5339, 2022-02-04)"
   sodipodi:docname="airbnb.svg"
   xmlns:inkscape="http://www.inkscape.org/namespaces/inkscape"
   xmlns:sodipodi="http://sodipodi.sourceforge.net/DTD/sodipodi-0.dtd"
   xmlns="http://www.w3.org/2000/svg"
   xmlns:svg="http://www.w3.org/2000/svg">

  <defs
     id="defs2728" />
  <g
     inkscape:label="Calque 1"
     inkscape:groupmode="layer"
     id="layer1"
     transform="translate(41.830118,-57.416143)">
    <path
       style="fill:#334155;stroke-width:0.264583"
       d="m -37.300931,90.080636 c -1.43785,-0.535263 -2.808875,-1.71069 -3.7379,-3.204631 -0.711966,-1.144894 -0.793491,-1.496637 -0.791243,-3.413823 0.0022,-1.90821 0.111331,-2.378582 1.017331,-4.386373 2.321058,-5.143713 9.209072,-18.724794 9.951605,-19.621555 2.187197,-2.641492 5.998673,-2.727064 8.389692,-0.188358 1.548143,1.643767 10.66722,20.129013 11.234222,22.772847 0.602094,2.807471 -1.114195,6.2472 -3.838517,7.693026 -0.858291,0.455504 -1.545655,0.580652 -3.208923,0.584251 -1.820659,0.0039 -2.330285,-0.103659 -3.644191,-0.769411 -0.840138,-0.425694 -2.240671,-1.419352 -3.112295,-2.208126 l -1.584771,-1.434136 -1.571467,1.454901 c -2.112998,1.956263 -4.038753,2.873428 -6.303247,3.001997 -1.13138,0.06423 -2.147474,-0.03758 -2.800296,-0.280609 z m 5.065314,-2.398977 c 0.767185,-0.357169 2.039466,-1.25902 2.827292,-2.004113 l 1.432411,-1.354715 -1.15841,-1.573588 c -4.018818,-5.459178 -4.038563,-10.539976 -0.04869,-12.528216 2.479044,-1.23536 5.331554,-0.701385 6.987946,1.308105 2.166522,2.628367 1.650183,6.252558 -1.550417,10.882389 l -1.404548,2.031749 1.448307,1.286666 c 2.714901,2.411894 5.48339,3.193216 7.553695,2.131806 2.863349,-1.467993 3.526752,-4.145937 1.936135,-7.815544 -1.770152,-4.083793 -8.923424,-18.347798 -9.606314,-19.155496 -1.372273,-1.623077 -3.936385,-1.660539 -5.268864,-0.07698 -0.700004,0.831908 -5.530002,10.271196 -8.667619,16.939168 -1.714989,3.644644 -1.931499,4.279862 -1.945486,5.707864 -0.01307,1.334793 0.110404,1.797436 0.729365,2.732748 1.394553,2.107314 4.114423,2.708273 6.735193,1.488155 z m 6.92592,-6.865223 c 2.018623,-3.098302 2.638282,-5.811547 1.728888,-7.570121 -1.19047,-2.302114 -5.091676,-2.002912 -6.124817,0.469741 -0.538977,1.289954 -0.310989,2.91873 0.696594,4.976556 0.718037,1.466475 2.254603,3.82278 2.492867,3.82278 0.05476,0 0.597665,-0.76453 1.206468,-1.698956 z m 24.48753374,0.940749 C -2.1379785,81.157918 -3.6964431,79.461804 -4.1253274,78.162276 -4.3097287,77.603532 -4.4072594,76.340194 -4.351398,75.23395 c 0.083135,-1.646269 0.220853,-2.120069 0.8950907,-3.079391 1.3251709,-1.885488 2.73926035,-2.702258 4.8887459,-2.823715 1.4945783,-0.08445 2.0039912,-0.0039 2.7464332,0.434122 0.7495698,0.442256 0.9371435,0.471007 1.055788,0.161823 0.100621,-0.262215 0.5871131,-0.37598 1.6077909,-0.37598 h 1.4635109 v 6.217708 6.217708 H 6.8424507 c -1.0275173,0 -1.5069264,-0.113135 -1.6092435,-0.379764 -0.121322,-0.316164 -0.2860966,-0.294174 -0.9838822,0.131302 -1.1028389,0.67246 -3.61647574,0.682086 -5.07148826,0.01942 z m 5.28784866,-3.05142 c 0.6322298,-0.414253 0.6652763,-0.558944 0.6652763,-2.912918 0,-2.406182 -0.020796,-2.491123 -0.7276042,-2.970463 C 3.4312254,72.163098 1.295694,72.182726 0.26621878,72.860409 -1.8539933,74.256102 -1.5904498,77.926196 0.70440053,78.96254 1.7396251,79.430042 3.5487957,79.306534 4.4656854,78.705765 Z m 24.4777756,3.370757 c -0.218281,-0.08764 -0.590523,-0.327544 -0.827204,-0.533119 -0.372387,-0.323445 -0.451426,-0.318796 -0.587009,0.03453 -0.117306,0.305693 -0.558562,0.408297 -1.75591,0.408297 h -1.599235 l 0.06958,-9.194271 0.06958,-9.19427 1.653646,-0.07877 1.653646,-0.07877 v 3.448319 3.44832 l 0.859896,-0.524289 c 2.019117,-1.23108 5.765093,-0.280143 7.312792,1.856394 1.100606,1.51934 1.428411,2.681993 1.304565,4.62697 -0.130003,2.041657 -1.137584,3.834363 -2.819458,5.016428 -0.973416,0.684143 -1.405456,0.806594 -3.036449,0.860609 -1.045855,0.03464 -2.080148,-0.0087 -2.29843,-0.09637 z m 3.06278,-3.237544 c 2.522339,-1.145599 2.576716,-4.804247 0.09178,-6.174935 -1.065104,-0.587509 -2.779014,-0.509741 -3.821628,0.173407 -0.656381,0.430076 -0.672656,0.511832 -0.599131,3.009493 l 0.07558,2.567407 0.926042,0.46261 c 1.173702,0.58633 1.972863,0.577207 3.327363,-0.03798 z m 24.189303,3.224126 c -0.218281,-0.08026 -0.590523,-0.314126 -0.827204,-0.519701 -0.372387,-0.323445 -0.451426,-0.318796 -0.587009,0.03453 -0.117306,0.305693 -0.558562,0.408297 -1.75591,0.408297 h -1.599235 l 0.06958,-9.194271 0.06958,-9.19427 1.653646,-0.07877 1.653646,-0.07877 v 3.443285 3.443285 l 0.933214,-0.550609 c 0.753957,-0.444846 1.256803,-0.530005 2.617833,-0.443341 3.237026,0.206118 5.607259,2.491736 5.89394,5.68353 0.368112,4.098418 -2.306466,7.238598 -6.137696,7.206175 -0.873125,-0.0074 -1.766093,-0.0791 -1.984375,-0.159363 z m 3.06278,-3.224126 c 2.522339,-1.145599 2.576716,-4.804247 0.09178,-6.174935 -1.065104,-0.587509 -2.779014,-0.509741 -3.821628,0.173407 -0.656381,0.430076 -0.672656,0.511832 -0.599131,3.009493 l 0.07558,2.567407 0.926042,0.46261 c 1.173702,0.58633 1.972863,0.577207 3.327363,-0.03798 z m -48.89252,-3.070245 0.07547,-6.217924 h 1.578179 1.578178 v 6.217708 6.217708 l -1.653646,2.17e-4 -1.653645,2.16e-4 z m 5.083908,-2.16e-4 v -6.217708 h 1.5875 c 1.235635,0 1.587499,0.08808 1.587499,0.397389 0,0.329851 0.167961,0.307367 0.988269,-0.132292 0.592328,-0.317468 1.493354,-0.529681 2.248959,-0.529681 h 1.260689 v 1.423408 1.423408 l -1.555189,0.112492 c -0.855356,0.06187 -1.867387,0.317051 -2.248958,0.567067 l -0.69377,0.454574 v 4.359526 4.359525 h -1.587499 -1.5875 z m 23.018749,0 v -6.217708 h 1.455209 c 1.117129,0 1.455208,0.0922 1.455208,0.396875 0,0.511126 0.07977,0.501759 1.118084,-0.131303 1.916234,-1.168329 5.282494,-0.463273 6.598698,1.382084 0.585882,0.821427 0.621813,1.120601 0.699775,5.826823 l 0.08218,4.960937 h -1.603536 -1.603537 v -4.24536 c 0,-4.154641 -0.01389,-4.259237 -0.649433,-4.894791 -0.813252,-0.813253 -2.300522,-0.865326 -3.517754,-0.123165 l -0.859896,0.524288 v 4.369514 4.369514 h -1.5875 -1.5875 z M 11.031794,67.701303 C 10.245873,67.3771 9.5748742,66.02164 9.7852894,65.183282 9.997046,64.339579 11.0904,63.465392 11.93387,63.465392 c 0.850567,0 2.192925,1.355168 2.192925,2.213852 0,1.389358 -1.79147,2.559781 -3.095001,2.022059 z"
       id="path2595" />
  </g>
</svg>