<svg
   width="156.59"
   height="48"
   viewBox="0 0 74.435677 22.816473"
   version="1.1"
   id="bongoo"
   inkscape:version="1.1.2 (0a00cf5339, 2022-02-04)"
   sodipodi:docname="bongogo.svg"
   xmlns:inkscape="http://www.inkscape.org/namespaces/inkscape"
   xmlns:sodipodi="http://sodipodi.sourceforge.net/DTD/sodipodi-0.dtd"
   xmlns="http://www.w3.org/2000/svg"
   xmlns:svg="http://www.w3.org/2000/svg">

  <defs
     id="defs980" />
  <g
     inkscape:label="Calque 1"
     inkscape:groupmode="layer"
     id="layer1"
     transform="translate(101.26285,-87.122577)">
    <path
       style="fill:#334155;stroke-width:0.0846667"
       d="m -96.892638,109.67784 c -1.897994,-0.97887 -3.656742,-3.53745 -4.223552,-6.14429 -0.19206,-0.8833 -0.19627,-2.58861 -0.008,-3.30785 0.55788,-2.133191 2.20022,-3.192158 4.129726,-2.662805 2.66639,0.731514 4.98537,3.945465 5.40943,7.497115 0.23724,1.98697 -0.436463,3.9282 -1.623291,4.67742 -0.303854,0.19181 -0.388957,0.20162 -1.748522,0.20162 h -1.429123 z m 3.041925,-0.26637 c 0.78163,-0.32992 1.382017,-1.225 1.643566,-2.45029 0.357771,-1.67607 -0.278449,-4.225 -1.521986,-6.09763 -0.840177,-1.265211 -2.180262,-2.366921 -3.2885,-2.703538 -2.495678,-0.758038 -4.166487,1.520932 -3.580137,4.883288 0.54865,3.1462 2.775331,6.01478 5.056739,6.5145 0.615089,0.13473 1.130078,0.0901 1.690318,-0.14633 z m -0.975466,-1.48325 c -0.896679,-1.16884 -1.509535,-2.50959 -2.21565,-4.84717 -0.567106,-1.87739 -1.042292,-3.238849 -1.411774,-4.044879 l -0.321132,-0.700548 0.358838,0.246887 c 0.737315,0.507286 1.427749,1.4184 1.901207,2.50888 0.378499,0.87176 0.655196,1.807 1.164797,3.937 0.250674,1.04775 0.569496,2.23837 0.708494,2.64583 0.138999,0.40746 0.238319,0.74083 0.22071,0.74083 -0.01761,0 -0.20008,-0.21907 -0.40549,-0.48683 z m 6.131134,-1.72622 c -2.405313,-0.39452 -3.224515,-3.01965 -1.825894,-5.85107 0.424501,-0.85937 0.858284,-1.474033 1.56152,-2.212642 1.113718,-1.16974 2.093875,-1.823169 3.398256,-2.265476 1.041972,-0.353326 2.119163,-0.380536 2.908936,-0.07348 0.74947,0.291386 1.389118,0.963249 1.634357,1.716668 0.378781,1.163697 0.201631,2.57182 -0.505661,4.01934 -1.427224,2.92092 -4.726333,5.06772 -7.171514,4.66666 z m -0.203177,-2.59435 c 0.461856,-0.5437 1.759289,-1.62645 3.071619,-2.56335 1.768863,-1.262834 2.739545,-2.170445 3.464827,-3.239696 0.313753,-0.462553 0.295842,-0.57679 -0.05212,-0.332409 -0.130739,0.09182 -0.542508,0.350139 -0.915041,0.574038 -3.233854,1.943602 -5.413402,3.778137 -6.086026,5.122627 -0.470497,0.94047 -0.531404,1.87918 -0.07823,1.20569 0.118362,-0.17591 0.386099,-0.52101 0.594969,-0.7669 z m 23.010619,2.0003 c -0.437801,-0.23945 -0.521237,-0.78569 -0.17318,-1.13374 0.165727,-0.16573 0.294335,-0.20782 0.635,-0.20782 0.320817,0 0.42718,0.0312 0.42718,0.12538 0,0.0978 -0.07906,0.11589 -0.359833,0.0822 -0.489649,-0.0587 -0.676061,0.094 -0.640575,0.52488 0.03316,0.40258 0.313113,0.57713 0.732663,0.4568 0.20434,-0.0586 0.267745,-0.0503 0.267745,0.0353 0,0.21641 -0.5701,0.29147 -0.889,0.11704 z m 9.239375,-0.55484 c 0.163571,-0.35894 0.31864,-0.68698 0.344599,-0.72898 0.03685,-0.0596 0.703027,1.21985 0.703027,1.35025 0,0.11641 -0.252979,-0.001 -0.296334,-0.13799 -0.03996,-0.1259 -0.128103,-0.16934 -0.343654,-0.16934 -0.198218,0 -0.323358,0.0536 -0.39566,0.16934 -0.05816,0.0931 -0.15157,0.16933 -0.207569,0.16933 -0.06239,0 0.01334,-0.25268 0.195591,-0.65261 z m 0.506352,0.0107 c -0.02827,-0.0737 -0.0526,-0.17843 -0.05409,-0.23283 -0.0029,-0.10803 -0.251307,0.18676 -0.251307,0.29828 0,0.0377 0.08028,0.0685 0.178393,0.0685 0.127883,0 0.16384,-0.0379 0.127,-0.13393 z m 8.96085,0.53306 c -0.02524,-0.0658 -0.0345,-0.38252 -0.02056,-0.70386 l 0.02532,-0.58427 0.359833,-0.026 c 0.2129,-0.0154 0.359834,0.0105 0.359834,0.0635 0,0.0493 -0.1143,0.0895 -0.254,0.0895 -0.21449,0 -0.254,0.0329 -0.254,0.21167 0,0.16933 0.04233,0.21166 0.211666,0.21166 0.116417,0 0.211667,0.0381 0.211667,0.0847 0,0.0466 -0.09525,0.0847 -0.211667,0.0847 -0.184769,0 -0.211666,0.037 -0.211666,0.29133 0,0.30556 -0.137803,0.48202 -0.216424,0.27713 z m 9.275757,-0.6108 v -0.71966 h 0.381 c 0.436573,0 0.519599,0.14524 0.105833,0.18513 -0.209878,0.0202 -0.275167,0.0667 -0.275167,0.19587 0,0.12915 0.06529,0.17562 0.275167,0.19586 0.369406,0.0356 0.352311,0.18514 -0.02117,0.18514 -0.259646,0 -0.296333,0.0262 -0.296333,0.21166 0,0.18546 0.03669,0.21167 0.296333,0.21167 0.206963,0 0.296334,0.0383 0.296334,0.127 0,0.0941 -0.09878,0.127 -0.381,0.127 h -0.381 z m 6.10517,-1.99657 c -1.057645,-0.20771 -2.201309,-1.08417 -2.670516,-2.04658 -0.690706,-1.416726 -0.405374,-3.239389 0.681365,-4.352495 1.072724,-1.098752 3.035435,-1.490547 4.535258,-0.905325 1.630116,0.636063 2.51356,2.02915 2.420085,3.816196 -0.03625,0.692954 -0.07944,0.867714 -0.349575,1.414294 -0.344834,0.69773 -1.052759,1.42716 -1.676638,1.72759 -0.829935,0.39965 -1.979123,0.53502 -2.939979,0.34632 z m 1.905738,-1.97448 c 0.653008,-0.30405 1.12013,-1.021308 1.129374,-1.734124 0.01106,-0.852968 -0.687628,-1.757406 -1.510035,-1.954698 -1.900468,-0.455915 -3.302241,1.502653 -2.210824,3.088972 0.526246,0.76487 1.668997,1.02939 2.591485,0.59985 z m -10.762575,1.86056 c -0.654965,-0.15305 -1.008549,-0.30846 -1.49261,-0.65606 -0.511796,-0.36751 -0.977286,-0.92987 -1.249161,-1.50911 -0.198123,-0.42212 -0.218707,-0.56466 -0.220065,-1.524004 -0.0013,-0.913025 0.02548,-1.125136 0.19498,-1.544884 0.215175,-0.53285 0.852371,-1.288449 1.403895,-1.664766 1.588968,-1.084183 3.993277,-0.822094 5.331801,0.58121 0.570682,0.598301 0.857972,1.180713 0.983313,1.99344 0.28511,1.848704 -0.760039,3.593464 -2.51406,4.196934 -0.643699,0.22146 -1.780886,0.28081 -2.438093,0.12724 z m 1.866128,-1.94224 c 0.739957,-0.34457 1.139539,-0.971975 1.139539,-1.789267 0,-0.817292 -0.399582,-1.444701 -1.139539,-1.789272 -1.353281,-0.630169 -2.924461,0.300135 -2.924461,1.731585 0,1.529804 1.530199,2.496214 2.924461,1.846954 z m -10.444761,1.88083 c -1.154213,-0.1653 -2.17661,-0.89375 -2.67657,-1.90703 -0.314132,-0.63665 -0.412951,-1.217513 -0.367546,-2.160439 0.03575,-0.742381 0.07279,-0.896651 0.349975,-1.457493 0.703792,-1.424022 2.034114,-2.15612 3.737441,-2.056775 0.898737,0.05242 1.513652,0.260768 2.116667,0.717184 0.429619,0.325175 1.003493,1.072979 0.948959,1.236573 -0.01643,0.04927 -0.40518,0.240669 -0.863901,0.425321 l -0.834041,0.335727 -0.133509,-0.202417 c -0.284226,-0.430924 -0.559919,-0.702695 -0.825336,-0.813593 -0.430532,-0.179888 -1.114573,-0.144428 -1.509506,0.07825 -0.389609,0.219677 -0.843317,0.847522 -0.982273,1.359272 -0.124773,0.459513 -0.04696,1.35314 0.159729,1.83431 0.281514,0.65536 1.02658,1.18374 1.669211,1.18374 0.636878,0 1.481667,-0.59721 1.481667,-1.04743 v -0.22163 h -0.762 -0.762 v -0.666968 c 0,-0.473674 0.03493,-0.695957 0.120536,-0.767002 0.08948,-0.07426 0.580355,-0.08456 1.905,-0.03996 l 1.784464,0.06008 -0.003,0.220092 c -0.0016,0.121051 -0.05536,0.51402 -0.119422,0.873265 -0.308586,1.730593 -1.351743,2.791873 -2.974787,3.026463 -0.66512,0.0961 -0.724697,0.0957 -1.459802,-0.01 z m -17.562579,-0.28233 c -1.924074,-0.52937 -3.0812,-2.29859 -2.793656,-4.271428 0.214662,-1.472791 1.196493,-2.612231 2.63362,-3.056376 0.644824,-0.199285 1.867416,-0.222641 2.522598,-0.04819 1.320581,0.351617 2.437152,1.483039 2.733911,2.77027 0.221192,0.959447 0.03429,2.169684 -0.454713,2.944304 -0.496459,0.78644 -1.521714,1.5093 -2.401882,1.69345 -0.589698,0.12338 -1.734548,0.10701 -2.239878,-0.032 z m 2.011212,-1.86211 c 0.37728,-0.15298 0.790503,-0.53163 0.975135,-0.893538 0.81307,-1.593748 -0.65927,-3.349819 -2.385121,-2.844747 -1.119024,0.327483 -1.706107,1.371193 -1.387594,2.466842 0.335087,1.152663 1.634307,1.743133 2.79758,1.271443 z m 9.890543,1.91071 -0.438787,-0.0497 -1.085213,-1.44237 c -0.596865,-0.79331 -1.332859,-1.779426 -1.635543,-2.191377 l -0.550333,-0.749003 -0.05203,2.02204 c -0.02862,1.11212 -0.05719,2.10777 -0.0635,2.21254 -0.01109,0.18411 -0.03993,0.1905 -0.859042,0.1905 h -0.847566 l 0.02207,-3.66183 0.02207,-3.661834 0.858356,-0.02402 0.858357,-0.02402 0.326977,0.416889 c 0.179838,0.229289 0.936578,1.243357 1.681644,2.253483 l 1.354667,1.836595 0.05164,-1.763793 c 0.0284,-0.970086 0.05698,-1.963818 0.0635,-2.208293 l 0.01185,-0.4445 0.867834,-3.5e-5 0.867833,-3.4e-5 -0.02463,3.577201 c -0.01355,1.967461 -0.04093,3.624831 -0.06084,3.683041 -0.03802,0.11115 -0.546338,0.12174 -1.369306,0.0285 z m -21.213096,-0.23229 c -0.02162,-0.0393 -0.01656,-1.6901 0.01127,-3.668499 l 0.05061,-3.59709 1.651,0.02834 c 1.839174,0.03157 2.234406,0.111402 2.686571,0.542694 0.341931,0.326145 0.476443,0.720065 0.471471,1.3807 -0.0043,0.572995 -0.188693,1.052493 -0.498377,1.296091 l -0.197519,0.155369 0.476909,0.244495 c 0.621202,0.318468 0.870944,0.752946 0.870944,1.51517 0,0.28841 -0.04315,0.6539 -0.09589,0.81219 -0.135298,0.40609 -0.615622,0.87901 -1.122685,1.10539 -0.40023,0.17868 -0.575107,0.19541 -2.348709,0.2248 -1.053957,0.0175 -1.933977,-4.2e-4 -1.955605,-0.0397 z m 3.280312,-1.58834 c 0.295706,-0.19375 0.407951,-0.51222 0.297977,-0.845443 -0.122018,-0.36972 -0.374317,-0.495945 -1.082236,-0.541444 l -0.613834,-0.03945 v 0.826847 0.82684 l 0.589982,-0.0422 c 0.346299,-0.0248 0.680077,-0.10125 0.808111,-0.18514 z M -73.23378,97.7802 c 0.104034,-0.06596 0.212939,-0.214703 0.242011,-0.330531 0.132287,-0.527073 -0.230478,-0.887929 -0.89263,-0.887929 h -0.342871 v 0.663222 c 0,0.364773 0.02735,0.69057 0.06077,0.723994 0.0863,0.0863 0.707797,-0.02615 0.932717,-0.168756 z m -19.679436,0.40706 c -1.177781,-0.420811 -2.118708,-1.584554 -2.649183,-3.27652 -0.238195,-0.759733 -0.330766,-2.730271 -0.170684,-3.633368 0.310823,-1.753505 1.280291,-3.293926 2.462894,-3.913379 0.398206,-0.208583 0.553341,-0.240367 1.178253,-0.241398 0.582247,-9.6e-4 0.795415,0.03612 1.116363,0.194217 1.148435,0.565696 2.01076,1.762926 2.451013,3.402928 0.27851,1.037485 0.281379,2.948518 0.006,3.964434 -0.708645,2.613826 -2.619748,4.137229 -4.394608,3.503086 z m 1.137615,-1.43502 c 0.0017,-0.593725 0.05032,-1.6129 0.108009,-2.264833 0.151994,-1.717699 0.139974,-4.257867 -0.02364,-4.995333 -0.139114,-0.627044 -0.459145,-1.451447 -0.534279,-1.376313 -0.04325,0.04325 -0.187163,1.781266 -0.381902,4.612164 -0.144624,2.102386 0.06938,3.896757 0.565783,4.743982 0.115958,0.197908 0.22255,0.359833 0.236871,0.359833 0.01432,0 0.02744,-0.485775 0.02916,-1.0795 z"
       id="path313"
       sodipodi:nodetypes="ssssssscssssssssssscssssssssssscsssssssssssssssssssssssssssssssssccssssssssssccsssssssssccsssssssssssssssscssssssssssscssssssscssssssscccsssccssccsssssssssssssccsscssscccccsscsscccsssccccsssscsssssccssscccssscscsssssssssscsscssssssc" />
  </g>
</svg>