<svg
   width="142"
   height="48"
   viewBox="0 0 355.0647 120.41445"
   version="1.1"
   id="svg2993"
   inkscape:version="1.1.2 (0a00cf5339, 2022-02-04)"
   sodipodi:docname="lyon7v3.svg"
   xmlns:inkscape="http://www.inkscape.org/namespaces/inkscape"
   xmlns:sodipodi="http://sodipodi.sourceforge.net/DTD/sodipodi-0.dtd"
   xmlns="http://www.w3.org/2000/svg"
   xmlns:svg="http://www.w3.org/2000/svg">

  <defs
     id="defs2990" />
  <g
     inkscape:label="Calque 1"
     inkscape:groupmode="layer"
     id="layer1"
     transform="translate(104.88037,-20.283354)">
    <path
       style="fill:#334155;stroke-width:0.264583"
       d="m 172.26754,115.52728 c 0,-0.0958 2.01464,-5.36435 4.47699,-11.70781 2.46234,-6.343466 7.5225,-19.379588 11.24479,-28.969162 3.72229,-9.589574 6.7678,-17.536995 6.7678,-17.660937 0,-0.123941 -4.10525,-0.225348 -9.12275,-0.225348 h -9.12275 l -0.0715,5.490104 -0.0715,5.490104 -6.15156,0.07102 -6.15156,0.07102 V 56.704316 45.322356 h 22.48958 22.48958 v 5.665341 5.66534 l -11.44323,29.520864 -11.44323,29.520869 -6.94531,0.003 c -3.81992,0.002 -6.94531,-0.075 -6.94531,-0.17086 z m -95.875979,-0.49461 c -2.361163,-0.59506 -4.613404,-1.91187 -6.537081,-3.822 -3.456708,-3.43236 -4.013209,-5.63273 -4.016767,-15.882064 -0.0028,-8.118258 0.23699,-9.982184 1.655924,-12.870953 1.478021,-3.009058 5.219091,-5.880415 8.91621,-6.843392 1.986835,-0.517504 6.054325,-0.504883 8.110132,0.02516 3.4529,0.890262 7.123941,3.678888 8.681122,6.594432 1.524775,2.854873 1.671934,3.994396 1.673963,12.962459 0.0021,8.888528 -0.102738,9.793068 -1.472075,12.711978 -1.324639,2.82364 -4.501735,5.58183 -7.786487,6.75983 -2.0823,0.74677 -6.945746,0.93896 -9.224941,0.36455 z m 7.141107,-7.21791 c 1.512885,-0.77182 2.652771,-2.18028 3.200442,-3.95452 0.399227,-1.29334 0.469249,-2.56643 0.469249,-8.531634 0,-8.437528 -0.193979,-9.433367 -2.219518,-11.394419 -2.945736,-2.85196 -8.053676,-2.30618 -10.132642,1.082664 -1.102188,1.79663 -1.342599,4.107879 -1.20728,11.606469 0.09595,5.31699 0.201737,6.73914 0.577069,7.75777 0.602017,1.63385 2.266635,3.27951 3.822383,3.77886 1.611365,0.51721 4.107486,0.36027 5.490297,-0.34519 z M -79.880367,80.247356 v -34.925 h 40.084371 40.08437357 v 34.925 34.925004 H -9.1737864 -18.63595 l 1.780091,-1.85208 c 0.979048,-1.01865 2.000723,-1.85209 2.270389,-1.85209 0.580512,0 2.955616,-0.69799 3.434877,-1.00943 0.259408,-0.16858 0.201258,-0.46183 -0.25775,-1.2998 l -0.592735,-1.08212 0.469802,-2.26038 c 0.649409,-3.12453 0.411147,-3.90417 -1.958128,-6.40736 -1.443919,-1.525532 -1.832634,-2.107507 -1.832634,-2.743772 0,-0.444156 -0.0893,-0.805585 -0.198438,-0.803177 -0.10914,0.0024 -0.912812,0.660186 -1.785937,1.461725 -2.056037,1.887469 -2.880794,2.343335 -3.571139,1.973874 -0.683197,-0.365636 -0.766231,-0.821534 -0.867482,-4.762894 -0.04673,-1.819011 -0.175789,-3.501493 -0.2868,-3.738851 -0.156234,-0.33405 0.06561,-0.561028 0.981829,-1.004565 1.673521,-0.810135 3.472008,-2.474687 4.119927,-3.813111 0.46046,-0.951185 0.547997,-1.603439 0.523362,-3.899625 -0.05576,-5.197208 1.078193,-6.761634 6.233694,-8.600128 2.4857706,-0.886447 3.7039366,-1.964126 4.9012686,-4.336029 0.442886,-0.877355 0.769178,-1.595191 0.725093,-1.595191 -0.04409,0 -0.547224,0.238125 -1.118086,0.529167 -1.042427,0.53146 -2.109653,0.667546 -2.889184,0.368411 -0.322752,-0.123852 -0.175004,-0.337447 0.643609,-0.930447 1.455023,-1.054013 3.214119,-3.521035 4.201012,-5.89166 0.967142,-2.323182 1.042196,-2.892562 0.24824,-1.883211 -0.690187,0.877432 -2.953851,1.982464 -4.055761,1.979864 l -0.79375,-0.0019 0.850826,-0.544949 c 1.538571,-0.985467 2.059591,-2.183997 2.059591,-4.737822 0,-1.236927 -0.177239,-2.844271 -0.393867,-3.571875 l -0.393867,-1.322916 -0.158382,1.623065 c -0.108725,1.114173 -0.400015,2.026695 -0.92905,2.910416 l -0.770667,1.287352 -0.132292,-1.742012 c -0.545973,-7.189364 -10.1138036,-8.273735 -13.3140606,-1.508947 -0.377089,0.797105 -0.813861,2.252035 -0.970597,3.233179 -0.249706,1.563087 -0.213561,2.063898 0.292007,4.046008 0.580705,2.276695 0.545558,3.379071 -0.194236,6.092084 -0.257564,0.94456 0.546002,0.741834 1.85982,-0.469199 1.458513,-1.344411 1.808483,-2.569077 1.472607,-5.153197 -0.1324,-1.018645 -0.244623,-2.548212 -0.249383,-3.399035 l -0.0087,-1.54695 1.212101,1.282366 c 0.666655,0.705303 1.142754,1.063879 1.057998,0.796838 -0.62497,-1.969117 -0.310896,-5.8015 0.545647,-6.658041 0.603152,-0.603152 3.190751,-0.523851 4.264276,0.130685 3.0444786,1.856243 2.4285756,5.675297 -1.621136,10.052257 -1.512488,1.634707 -4.048982,5.118534 -5.041969,6.925056 -1.14936,2.091002 -1.838663,4.908012 -1.653677,6.758162 0.07571,0.757216 0.563546,2.320012 1.084082,3.472883 1.882661,4.16968 1.076037,6.520117 -2.830637,8.248224 l -1.234392,0.546029 -1.000001,-0.647131 c -0.55,-0.355923 -1.924454,-1.02661 -3.054342,-1.490414 -1.558308,-0.639667 -2.270545,-1.108451 -2.949747,-1.941481 -1.864532,-2.286817 -2.567262,-4.482586 -2.145561,-6.704065 l 0.191481,-1.008716 0.535919,1.133044 c 0.294754,0.623173 0.744056,1.244436 0.998445,1.38058 0.389115,0.208248 0.485598,0.105386 0.607864,-0.648068 0.07994,-0.492583 0.828162,-1.887749 1.662727,-3.100372 1.799224,-2.614279 3.334083,-5.778068 3.957658,-8.157892 0.593447,-2.264842 0.602195,-5.532282 0.02008,-7.500655 l -0.457655,-1.547532 0.960993,-1.230593 0.960993,-1.230595 -1.104826,-0.08266 c -0.929798,-0.06956 -1.084344,-0.160978 -0.97554,-0.577048 0.10622,-0.406178 -0.06608,-0.525952 -0.965644,-0.671264 -1.562124,-0.252338 -2.978309,-0.921168 -5.298668,-2.502429 -2.370211,-1.615239 -3.867242,-2.129745 -6.090919,-2.093354 -2.175383,0.0356 -2.916971,0.271287 -3.016713,0.958757 -0.09958,0.686358 0.508156,1.055063 2.099585,1.273781 0.636688,0.0875 1.663631,0.339267 2.282094,0.559475 0.879936,0.313309 1.12448,0.532423 1.12448,1.007557 0,0.333949 -0.191852,0.766402 -0.426337,0.961006 -0.370334,0.307351 -0.552794,0.206822 -1.389062,-0.765336 -0.575646,-0.669185 -1.334355,-1.223944 -1.887022,-1.379765 -1.141402,-0.32181 -6.085191,-0.337529 -6.585061,-0.02093 -0.47438,0.300448 -0.24443,1.541161 0.63611,3.432212 l 0.66257,1.422913 2.311584,-0.158848 c 2.478177,-0.170296 3.890719,0.13139 4.393527,0.938351 0.424887,0.681897 0.132591,0.75825 -1.166225,0.304641 -1.382389,-0.482799 -3.63389,-0.357849 -5.995936,0.332748 -0.84389,0.246732 -2.23013,0.459113 -3.08053,0.471963 -1.37941,0.02085 -1.61485,-0.05647 -2.18281,-0.716769 -1.14893,-1.335717 -0.57683,-3.356464 0.95025,-3.356464 0.41973,0 0.83672,0.119062 0.92666,0.264583 0.25643,0.414917 1.18995,0.309605 1.36798,-0.154326 0.40523,-1.056005 -2.29279,-2.141839 -3.59296,-1.446009 -1.51183,0.809106 -2.10308,3.569049 -1.11256,5.193387 1.04771,1.718122 3.53414,2.12344 7.174,1.169448 2.169413,-0.568598 4.341676,-0.676064 5.415234,-0.267896 0.668819,0.254283 0.676225,0.282474 0.276995,1.054499 -0.225608,0.436277 -0.706469,0.86759 -1.068581,0.958475 -0.803465,0.201657 -2.347272,-0.06386 -3.483623,-0.599133 -1.155595,-0.544344 -1.754845,-0.280488 -2.696805,1.187431 -1.00648,1.568463 -2.30596,4.933574 -1.82646,4.729776 0.18729,-0.0796 0.96294,-0.414194 1.72367,-0.743537 1.4725,-0.63749 2.16177,-0.48858 1.23116,0.265978 -0.54293,0.440227 -0.51327,0.451194 0.93673,0.34631 1.605099,-0.116104 2.301363,0.270727 1.982572,1.101479 -0.23132,0.602813 -1.615845,0.913424 -5.292452,1.187336 -3.37913,0.251749 -4.91243,0.725715 -6.66011,2.058731 -0.49051,0.374131 -0.93686,0.635222 -0.99188,0.5802 -0.055,-0.05502 0.0336,-0.632593 0.19703,-1.283489 0.16338,-0.650899 0.29561,-3.147983 0.29384,-5.549077 -0.004,-4.920647 -0.36154,-6.94106 -1.71753,-9.695481 -0.90046,-1.829097 -3.18438,-4.516015 -4.56281,-5.367936 -1.41635,-0.87535 -4.0145,-0.583679 -4.92998,0.553448 -0.22177,0.275452 -0.75755,0.599006 -1.19063,0.719007 l -0.78742,0.218184 0.96605,0.411964 c 0.54227,0.231251 1.12259,0.735161 1.32292,1.148734 0.22897,0.472728 0.66504,0.816064 1.21676,0.958032 0.50174,0.129103 0.8599,0.39084 0.8599,0.628401 0,0.502214 -0.93022,0.275246 -1.71979,-0.419616 -1.29052,-1.135721 -2.24429,-1.174072 -4.96094,-0.199482 -0.89585,0.321386 -0.96098,0.697227 -0.092,0.531119 0.60725,-0.116083 0.91433,0.09862 1.95456,1.366536 0.2161,0.263408 0.76805,0.41584 1.50573,0.41584 0.64052,0 1.23817,0.119063 1.3281,0.264584 0.10204,0.165094 -0.43,0.264583 -1.41493,0.264583 -1.19224,0 -2.02133,0.198707 -3.38852,0.812122 -2.85342,1.280245 -3.60595,2.20725 -1.56469,1.927466 0.952,-0.130487 1.30698,-0.05491 1.88776,0.401937 0.79654,0.626549 1.60219,0.697677 3.12214,0.275635 1.74426,-0.484317 3.08288,0.196437 3.07282,1.562676 -0.003,0.389787 -0.36006,1.715016 -0.79375,2.944951 -0.79285,2.248479 -0.97159,4.029347 -0.61871,6.164275 0.20541,1.242764 0.49412,1.261147 0.8916,0.05677 0.65913,-1.997172 2.3609,-2.106509 2.89427,-0.185951 0.55515,1.998956 0.14084,4.084957 -1.06845,5.379508 -0.57056,0.610785 -0.94493,0.76894 -1.82017,0.76894 -1.34775,0 -1.90884,-0.279982 -3.48324,-1.738146 -2.41695,-2.238497 -5.45899,-2.193184 -8.36382,0.124579 -0.93165,0.743368 -1.2293,1.835182 -0.39866,1.46236 0.50175,-0.225203 1.0412,-0.241186 3.175,-0.09407 0.76398,0.05267 1.38906,0.174631 1.38906,0.271016 0,0.09638 -0.68461,0.228139 -1.52135,0.292787 -1.15959,0.08959 -1.82047,0.321998 -2.77926,0.97735 -1.11343,0.761058 -1.7848,1.515642 -1.7848,2.00601 0,0.08892 0.43583,0.07991 0.96852,-0.02003 0.75041,-0.140777 1.22008,-0.04427 2.08559,0.428533 l 1.11707,0.610227 0.75235,-0.591799 c 0.52908,-0.416171 0.78511,-0.49352 0.86274,-0.260636 0.0607,0.182139 -0.1958,0.577636 -0.57003,0.878882 -0.37422,0.301244 -0.76015,0.870257 -0.85762,1.264471 -0.0975,0.394213 -0.33803,0.850222 -0.53459,1.013351 -0.85098,0.706252 -1.14955,3.246549 -0.32017,2.724153 0.18293,-0.115224 0.98744,-0.177411 1.7878,-0.1382 1.156,0.05663 1.64058,-0.05334 2.35676,-0.534882 0.49585,-0.333396 1.21023,-0.813906 1.5875,-1.067803 0.97181,-0.654002 2.04625,-0.583374 2.81464,0.185021 0.66689,0.666885 0.85418,1.574051 0.38485,1.864109 -0.14552,0.08994 -0.26458,0.267245 -0.26458,0.39402 0,0.33679 1.23433,-0.08476 3.00343,-1.025737 3.06477,-1.630138 5.97544,-0.911169 8.8094,2.176026 0.82331,0.896879 1.40606,1.392565 1.29501,1.101524 -0.11105,-0.291042 -0.26195,-1.303073 -0.33532,-2.248958 -0.159,-2.049759 0.28205,-2.807711 1.83791,-3.158435 1.5562,-0.350803 2.50844,0.290595 3.90348,2.629268 1.93589,3.245382 3.26745,4.289449 7.282959,5.710542 2.752929,0.974262 3.610655,2.917925 1.719792,3.897159 -1.309891,0.678359 -3.467238,0.418912 -6.318801,-0.759916 -6.31425,-2.610275 -7.82249,-3.106076 -9.82078,-3.22835 -3.3184,-0.203055 -5.41334,0.699312 -6.59565,2.84099 -0.79604,1.441974 -0.9058,4.569066 -0.21594,6.152214 0.63414,1.45527 2.62218,3.44482 4.59517,4.59867 3.04405,1.78023 4.05733,3.54707 2.5868,4.5106 -0.85211,0.55832 -2.07496,0.2854 -5.10269,-1.13883 -1.5212,-0.71557 -2.37122,-0.95105 -3.47091,-0.96154 -1.57866,-0.0151 -2.30486,0.27096 -3.64609,1.43602 -0.478,0.41522 -1.0946,0.75495 -1.37022,0.75495 -0.63247,0 -2.39088,1.63521 -2.39088,2.22336 0,0.3541 0.10092,0.38708 0.51177,0.1672 0.72343,-0.38717 1.48545,-0.33975 1.86367,0.11598 0.70681,0.85166 1.92736,0.76569 3.80832,-0.26821 1.74433,-0.95881 2.42255,-1.05983 1.76062,-0.26225 -0.18321,0.22075 -0.8045,0.5283 -1.38063,0.68344 -0.82467,0.22206 -1.12847,0.47577 -1.42794,1.19252 l -0.38042,0.91046 h -7.53707 -7.53707 z m 32.89799,34.747144 c 0.0978,-0.0978 0.77978,-0.20829 1.51546,-0.2455 0.93303,-0.0472 1.59279,-0.26192 2.181342,-0.71001 1.347478,-1.02587 3.003201,-1.77705 3.916921,-1.77705 0.823132,0 0.832977,-0.0136 0.375422,-0.51921 -0.70318,-0.777 -2.131441,-1.15325 -3.625482,-0.95506 -1.249233,0.16572 -1.295973,0.14954 -1.025893,-0.3551 0.294191,-0.54971 2.019327,-1.17995 2.469044,-0.90201 0.141674,0.0876 0.204873,0.001 0.140439,-0.19226 -0.272624,-0.81787 -1.502934,-1.34858 -3.880083,-1.67373 -3.0033,-0.4108 -3.34746,-0.68952 -3.34746,-2.71103 0,-1.28664 0.0935,-1.54908 0.75424,-2.11743 0.72275,-0.62169 0.89393,-0.64664 4.10104,-0.59777 4.376653,0.0667 5.180336,-0.17793 8.440037,-2.568874 0.554024,-0.406369 0.595312,-0.406009 0.595312,0.0052 0,0.917244 1.805694,3.277364 3.077874,4.022914 1.393529,0.81666 3.784415,1.40664 5.734651,1.41509 3.013932,0.0131 4.945808,0.99903 4.945808,2.52417 0,1.72128 -1.519375,2.26673 -4.096668,1.47069 -2.449713,-0.75664 -4.83063,-0.73823 -5.890522,0.0456 -0.442764,0.32742 -1.378357,1.01203 -2.079095,1.52135 -0.700739,0.50932 -1.555504,1.19731 -1.899476,1.52887 -0.647462,0.62409 -0.662305,1.32894 -0.02408,1.14362 1.212255,-0.35201 1.728052,-0.30112 2.196703,0.21673 0.697212,0.77041 1.205556,0.69216 2.609599,-0.40172 0.672126,-0.52365 1.359733,-0.9062 1.528016,-0.8501 0.168283,0.0561 -0.185679,0.4427 -0.786582,0.85913 -0.600906,0.41642 -1.162818,1.03709 -1.248699,1.37926 l -0.156149,0.62212 h -8.349787 c -4.592386,0 -8.269752,-0.08 -8.171932,-0.17786 z m 90.133255,-8.02643 V 98.763781 L 40.118682,92.746714 C 38.450976,89.437327 35.767524,84.199569 34.15546,81.107252 l -2.931028,-5.622396 4.309579,0.0084 4.309575,0.0084 3.571875,7.794283 c 1.964531,4.286856 3.647194,7.795429 3.73925,7.796832 0.09206,0.0013 1.758934,-3.508396 3.704167,-7.799552 l 3.536791,-7.802102 4.167187,-0.0031 c 2.291954,-0.0016 4.167188,0.05915 4.167188,0.135244 0,0.07609 -2.678906,5.414155 -5.953125,11.862363 l -5.953125,11.723993 v 7.981383 7.98139 H 46.987336 43.150878 V 106.9681 Z M 103.21129,95.328606 v -19.84375 h 3.42069 3.42069 l 7.75796,12.008453 7.75795,12.008456 0.0688,-12.008456 0.0688,-12.008453 h 3.83379 3.83379 v 19.84375 19.843754 h -3.40688 -3.40687 l -7.77178,-12.05455 -7.77177,-12.054536 -0.0688,12.054536 -0.0688,12.05455 h -3.83379 -3.83379 z m 44.45,-15.08125 v -34.925 h 1.05834 1.05833 v 34.925 34.925004 h -1.05833 -1.05834 z M 7.9612946,95.064022 V 75.220273 h 3.8364584 3.836459 v 16.404166 16.404171 h 8.995833 8.995833 v 3.43958 3.43959 H 20.793587 7.9612946 Z M 13.37603,67.216627 c -0.0687,-0.181901 -1.716,-5.182526 -3.6606694,-11.1125 l -3.53576,-10.781771 h 1.269357 1.269355 l 2.1522744,6.680729 c 1.183749,3.674401 2.466533,7.662445 2.850629,8.862322 0.384096,1.199875 0.775287,2.092844 0.869318,1.984375 0.171812,-0.198199 5.090482,-15.439019 5.421807,-16.799822 0.163234,-0.67044 0.278831,-0.727604 1.471387,-0.727604 0.711827,0 1.294233,0.06562 1.294233,0.145825 0,0.08021 -1.607343,5.015209 -3.571874,10.966675 -1.964532,5.951466 -3.571875,10.886469 -3.571875,10.966675 0,0.30766 -2.138278,0.132575 -2.258182,-0.184904 z M 26.482128,56.434856 v -11.1125 h 1.190625 1.190625 v 11.1125 11.1125 h -1.190625 -1.190625 z m 8.995833,0 v -11.1125 h 1.190625 1.190625 v 10.054167 10.054166 h 5.688542 5.688541 v 1.058334 1.058333 h -6.879166 -6.879167 z m 17.991666,0 v -11.1125 h 1.190625 1.190625 v 10.054167 10.054166 h 5.688542 5.688542 v 1.058334 1.058333 h -6.879167 -6.879167 z m 17.991667,0 v -11.1125 h 7.011458 7.011459 v 1.058334 1.058333 h -5.820834 -5.820833 v 3.96875 3.96875 h 4.894792 4.894791 v 1.058333 1.058333 h -4.894791 -4.894792 v 3.96875 3.96875 h 5.820833 5.820834 v 1.058334 1.058333 h -7.011459 -7.011458 z m 26.722917,-0.0195 V 45.283354 l 5.357809,0.08565 c 6.03132,0.09642 6.66383,0.264756 8.39253,2.233631 1.64917,1.878309 1.72778,2.274136 1.72778,8.699934 0,5.517319 -0.0318,5.889813 -0.60949,7.14375 -0.79847,1.733084 -1.73853,2.704267 -3.35926,3.470463 -1.2473,0.589664 -1.61401,0.625557 -6.41614,0.627994 l -5.093229,0.0026 V 56.415354 Z m 9.996519,8.604425 c 2.63555,-1.100937 3.23265,-2.686637 3.23265,-8.584925 0,-4.676 -0.33824,-6.343856 -1.51514,-7.471129 -1.3039,-1.248921 -2.39223,-1.524704 -6.01699,-1.524704 h -3.31579 v 8.995833 8.995833 h 3.31579 c 2.39905,0 3.58776,-0.113606 4.29948,-0.410911 z m 11.43473,-8.584925 v -11.1125 h 6.87917 6.87916 v 1.058334 1.058333 h -5.68854 -5.68854 v 3.96875 3.96875 h 4.89479 4.89479 v 1.058333 1.058333 h -4.89479 -4.89479 v 3.96875 3.96875 h 5.68854 5.68854 v 1.058334 1.058333 h -6.87916 -6.87917 z m 98.12625,2.776876 c -1.50979,-0.484436 -2.9864,-2.040376 -3.43712,-3.621778 -0.41619,-1.460246 -0.41785,-4.781838 -0.003,-6.236176 1.1535,-4.044942 6.27036,-5.351092 9.17019,-2.340824 1.20015,1.245878 1.71254,2.629328 1.71254,4.623953 v 1.358366 h -4.66402 -4.66402 l 0.1796,1.12313 c 0.401,2.507779 1.89378,3.745132 4.30387,3.56743 0.9086,-0.067 1.72619,-0.334889 2.41678,-0.791898 l 1.04365,-0.69065 0.62251,0.662638 0.62252,0.662639 -0.65805,0.50555 c -1.84314,1.415999 -4.45815,1.879406 -6.64533,1.17762 z m 5.49569,-8.26698 c -0.0717,-0.254661 -0.20714,-0.844984 -0.30099,-1.311828 -0.0988,-0.49127 -0.55673,-1.18782 -1.08728,-1.653646 -1.76315,-1.548056 -4.62888,-0.859321 -5.50177,1.322263 -0.85601,2.139342 -0.90784,2.106232 3.29843,2.106232 3.41802,0 3.71134,-0.03781 3.59161,-0.463021 z"
       id="path2956" />
  </g>
</svg>