<svg
   width="176"
   height="48"
   viewBox="0 0 213.78348 58.208332"
   version="1.1"
   id="svg988"
   inkscape:version="1.1.2 (0a00cf5339, 2022-02-04)"
   sodipodi:docname="booking.svg"
   xmlns:inkscape="http://www.inkscape.org/namespaces/inkscape"
   xmlns:sodipodi="http://sodipodi.sourceforge.net/DTD/sodipodi-0.dtd"
   xmlns="http://www.w3.org/2000/svg"
   xmlns:svg="http://www.w3.org/2000/svg">
  <sodipodi:namedview
     id="namedview990"
     pagecolor="#ffffff"
     bordercolor="#666666"
     borderopacity="1.0"
     inkscape:pageshadow="2"
     inkscape:pageopacity="0.0"
     inkscape:pagecheckerboard="0"
     inkscape:document-units="mm"
     showgrid="false"
     fit-margin-top="0"
     fit-margin-left="0"
     fit-margin-right="0"
     fit-margin-bottom="0"
     inkscape:zoom="0.75187991"
     inkscape:cx="495.42486"
     inkscape:cy="417.61988"
     inkscape:window-width="1280"
     inkscape:window-height="987"
     inkscape:window-x="0"
     inkscape:window-y="0"
     inkscape:window-maximized="1"
     inkscape:current-layer="layer1" />
  <defs
     id="defs985" />
  <g
     inkscape:label="Calque 1"
     inkscape:groupmode="layer"
     id="layer1"
     transform="translate(25.955651,-38.10792)">
    <path
       style="fill:#334155;stroke-width:0.264583"
       d="M -25.955651,67.212086 V 38.10792 H 3.1485149 32.252681 V 67.212086 96.316252 H 3.1485149 -25.955651 Z m 42.514546,14.269875 c 2.638234,-0.999601 3.162252,-4.472408 0.904139,-5.991973 -2.246929,-1.512039 -5.054103,0.02657 -5.054103,2.770147 0,1.365081 0.929741,2.74641 2.12583,3.158371 1.161856,0.400172 1.137459,0.399407 2.024134,0.06346 z M 2.5615315,80.835343 C 5.5470924,80.131451 7.3599116,78.849185 8.4922277,76.640367 9.1943869,75.270661 9.4368113,72.188993 8.9727824,70.531641 8.5965899,69.188015 7.1763939,67.393074 6.0137962,66.791872 L 5.2280234,66.385533 6.263719,65.261937 C 7.7424964,63.657652 8.2576402,62.135131 8.1360906,59.72809 8.0071565,57.174845 7.0761354,55.556944 5.0295542,54.329635 3.0656447,53.151904 1.6710048,52.924016 -3.545237,52.928486 c -5.0796613,0.0044 -5.6067642,0.136316 -6.3401812,1.587281 -0.4267758,0.84432 -0.4647568,1.999966 -0.4488898,13.65854 0.0095,7.004898 0.09035,12.809195 0.179592,12.898436 0.3579464,0.357947 11.03667514,0.158586 12.7162475,-0.2374 z M -4.803598,76.274064 c -0.00804,-0.10914 -0.00159,-1.625023 0.014499,-3.368624 0.038791,-4.223898 -0.00384,-4.177858 3.7605837,-4.061505 2.7763735,0.08581 2.8650168,0.107723 3.6616296,0.904978 1.8538322,1.855328 1.4268185,5.171294 -0.8152368,6.330706 -0.8040238,0.415777 -6.5926572,0.585764 -6.6214783,0.194445 z m 0.014605,-14.982708 c 0,-3.367429 0.05338,-3.479626 1.7873742,-3.756904 1.9225207,-0.307423 4.0241987,0.102667 4.8722253,0.950694 0.6603021,0.660305 0.7487338,0.941758 0.7487338,2.383046 0,1.50585 -0.07071,1.70502 -0.8995833,2.533894 L 0.82017364,64.301669 H -1.9844097 -4.788993 Z M 118.79717,82.844018 c -0.30827,-0.195178 -0.26347,-0.452112 0.26459,-1.517304 0.59388,-1.197977 0.69662,-1.278099 1.56175,-1.217909 3.61786,0.251712 4.7147,0.192678 5.23946,-0.281992 0.58567,-0.529773 1.26551,-1.964614 1.03844,-2.191679 -0.0788,-0.07882 -0.50565,0.04406 -0.94851,0.273066 -1.16799,0.603991 -3.58844,0.537877 -4.98057,-0.136041 -1.39797,-0.676746 -2.80559,-2.271078 -3.21676,-3.643453 -0.16889,-0.563689 -0.30706,-1.910434 -0.30706,-2.992765 0,-3.151301 1.4113,-5.392843 3.94208,-6.261123 1.35341,-0.464339 3.44779,-0.365353 4.74735,0.224371 1.0332,0.468847 1.20555,0.481577 1.71252,0.126479 0.3111,-0.2179 1.13702,-0.394832 1.84308,-0.394832 h 1.27937 l -0.0815,7.342187 -0.0815,7.342187 -0.74847,1.273352 c -1.25064,2.12766 -1.74248,2.297039 -6.65986,2.293483 -2.32833,-0.0016 -4.40034,-0.108797 -4.60446,-0.238027 z m 6.68221,-8.254008 c 1.624,-0.739944 1.99966,-4.346821 0.59865,-5.747837 -0.55161,-0.551603 -0.95924,-0.704046 -1.88265,-0.704046 -1.68349,0 -2.56234,0.919054 -2.70344,2.827092 -0.21167,2.862394 1.74896,4.644709 3.98744,3.624791 z m -69.330607,3.928716 c -2.961293,-1.147443 -4.659328,-3.628798 -4.659328,-6.808724 0,-3.009669 1.252122,-5.019796 4.046569,-6.496269 1.363501,-0.720421 4.758912,-0.69718 6.35,0.04346 2.534195,1.179653 3.96875,3.500993 3.96875,6.422075 0,3.006201 -1.375442,5.324533 -3.862017,6.509496 -1.271262,0.605813 -4.64103,0.796075 -5.843974,0.329959 z m 4.158401,-3.505912 c 1.016026,-0.525407 1.57884,-1.660252 1.57884,-3.18354 0,-2.268448 -1.32937,-3.823438 -3.268683,-3.823438 -2.495775,0 -4.036857,3.247535 -2.72764,5.74798 0.803288,1.534181 2.790253,2.100471 4.417483,1.258998 z m 11.631295,3.593727 c -1.81923,-0.553384 -3.452241,-1.935173 -4.39815,-3.721539 -0.365596,-0.69043 -0.490937,-1.49824 -0.492644,-3.175 -0.0021,-1.979083 0.085,-2.397431 0.725056,-3.48625 2.889113,-4.914712 10.285735,-4.848701 12.800648,0.114236 2.536081,5.004718 -0.915721,10.579129 -6.497519,10.493023 -0.810821,-0.01252 -1.772647,-0.11352 -2.137391,-0.22447 z m 4.378944,-3.997026 c 1.824498,-1.714026 1.277466,-5.421566 -0.935154,-6.338061 -2.448118,-1.014045 -4.68358,0.961622 -4.438057,3.922294 0.105561,1.272913 0.245726,1.570098 1.117237,2.368777 0.915678,0.839155 1.102162,0.903108 2.298356,0.788167 0.875051,-0.08408 1.516806,-0.327059 1.957618,-0.741177 z m 57.629727,3.981881 c -1.43959,-0.580943 -1.85116,-2.502913 -0.76794,-3.586128 0.9562,-0.956201 2.27828,-0.887404 3.1635,0.164619 0.37674,0.447725 0.68498,0.98942 0.68498,1.203764 0,0.814371 -0.80634,1.903558 -1.61894,2.186831 -0.4627,0.161298 -0.85327,0.285724 -0.86794,0.276498 -0.0146,-0.0092 -0.28181,-0.119737 -0.59366,-0.245584 z m 8.89966,0.01513 c -3.36698,-1.024178 -5.2245,-3.790389 -4.96574,-7.394942 0.28855,-4.019539 2.95516,-6.380752 7.20603,-6.380752 3.28279,0 4.80432,1.018132 4.94253,3.307291 l 0.0799,1.322917 -1.18309,0.08553 c -1.06426,0.07694 -1.25705,-0.0028 -1.91935,-0.79375 -0.66366,-0.792573 -0.86958,-0.877292 -2.08828,-0.85915 -1.23265,0.01836 -1.44214,0.116729 -2.3726,1.114234 -0.9321,0.999263 -1.02057,1.22228 -1.02057,2.5727 0,1.877906 0.45877,2.754106 1.85205,3.537172 1.43689,0.80758 2.97751,0.662747 4.76413,-0.447873 l 1.29681,-0.806144 0.69431,1.238227 0.69432,1.238223 -0.91859,0.797542 c -1.67291,1.452446 -4.90534,2.124763 -7.06183,1.468789 z m 13.89234,0.01442 c -1.19171,-0.314634 -2.8384,-1.224854 -3.48123,-1.924272 -3.14068,-3.41716 -2.21819,-9.171709 1.79051,-11.169329 1.94326,-0.968367 4.96002,-0.994897 6.79274,-0.05974 2.48331,1.267124 3.74774,3.370178 3.75312,6.242381 0.005,2.918306 -1.59894,5.423304 -4.15853,6.492768 -1.17275,0.490009 -3.60449,0.70653 -4.69661,0.41819 z m 3.21435,-3.375493 c 1.67434,-0.794525 2.4804,-3.584768 1.55343,-5.377325 -0.99057,-1.915562 -3.36598,-2.489798 -5.03461,-1.217075 -1.15532,0.881208 -1.65943,2.643626 -1.20029,4.196344 0.393,1.329049 0.9284,1.988883 1.99628,2.460259 1.05815,0.467077 1.59608,0.454615 2.68519,-0.0622 z M 37.213619,78.436761 c -0.109141,-0.110205 -0.198438,-4.059217 -0.198438,-8.775583 v -8.575215 l 0.773398,-0.773396 c 0.767824,-0.767826 0.795946,-0.773387 3.902604,-0.771921 4.609243,0.0021 6.297261,0.661363 7.428685,2.900992 0.896954,1.775494 0.670648,3.746854 -0.604027,5.261721 l -0.649841,0.772292 1.031454,1.031454 c 2.429145,2.429145 1.8878,6.26873 -1.148606,8.146661 -1.293749,0.80015 -1.315204,0.803444 -5.817666,0.893238 -2.48552,0.04957 -4.608423,-3.9e-5 -4.717563,-0.110243 z m 6.317519,-3.287176 c 1.462969,0 1.804056,-0.09388 2.35961,-0.649433 0.881967,-0.881965 0.892252,-2.450874 0.02222,-3.389656 -0.73806,-0.79638 -3.01783,-1.203603 -4.20143,-0.750477 -0.720294,0.275754 -0.727604,0.302823 -0.727604,2.694659 0,2.094471 0.05571,2.394725 0.418515,2.255507 0.230175,-0.08833 1.188088,-0.1606 2.128684,-0.1606 z m 1.518153,-8.485869 c 0.535572,-0.421283 0.69714,-0.782402 0.69714,-1.55819 0,-1.48369 -0.675177,-2.167636 -2.293345,-2.323121 -2.153867,-0.206959 -2.469155,0.106471 -2.469155,2.454614 v 1.975067 h 1.68411 c 1.303139,0 1.841815,-0.12405 2.38125,-0.54837 z m 37.738806,2.400453 v -9.525 h 1.455209 c 2.422281,0 2.513541,0.197567 2.513541,5.441532 V 69.3639 l 0.727604,-0.08372 c 0.582062,-0.06697 1.016252,-0.520348 2.170621,-2.266532 l 1.443016,-2.182812 h 2.195005 c 1.207251,0 2.195004,0.0719 2.195004,0.159784 0,0.08788 -0.892969,1.460119 -1.984375,3.049418 -1.091406,1.5893 -1.984375,3.020952 -1.984375,3.181448 0,0.311878 0.965901,2.08535 2.821429,5.180367 0.631026,1.052549 1.147321,1.975284 1.147321,2.050521 0,0.299627 -4.149738,0.123592 -4.57164,-0.193935 -0.241697,-0.181901 -1.01764,-1.402291 -1.724319,-2.711979 -0.935733,-1.734193 -1.441172,-2.404224 -1.860081,-2.465797 -0.55961,-0.08226 -0.57521,-0.0087 -0.57521,2.711979 v 2.796526 h -1.984375 -1.984375 z m 13.93679,2.879024 c -0.09399,-3.655285 -0.10603,-6.75091 -0.02676,-6.879167 0.280297,-0.453527 2.669527,-0.257926 3.324723,0.27219 0.62083,0.502312 0.6251,0.544084 0.70413,6.879167 l 0.0795,6.373785 h -1.955356 -1.955363 z m 6.171543,-0.222062 v -6.890295 h 1.30262 c 0.99619,0 1.48375,0.152418 2.07265,0.647946 l 0.77004,0.647946 1.00344,-0.714092 c 0.8837,-0.628877 1.24961,-0.714092 3.06637,-0.714092 1.67059,0 2.20207,0.103749 2.79454,0.545515 1.94256,1.448454 2.20489,2.473616 2.21319,8.648755 l 0.006,4.696354 h -1.54649 c -2.4349,0 -2.53636,-0.204708 -2.63899,-5.324519 -0.0827,-4.124267 -0.0978,-4.221033 -0.72644,-4.632902 -0.88003,-0.576619 -2.21454,-0.287626 -3.14197,0.680408 -0.9472,0.988661 -1.23622,2.513513 -1.18167,6.234305 l 0.0427,2.910417 -2.01814,0.07727 -2.01814,0.07728 z m 64.3554,0.06721 0.0706,-6.825213 0.66146,0.03468 c 0.3638,0.01908 0.92084,0.04884 1.23787,0.06615 0.58118,0.03173 1.27624,0.562345 1.46042,1.114896 0.0611,0.183245 0.6028,-0.01992 1.39835,-0.524442 1.09711,-0.695772 1.55573,-0.823568 2.95548,-0.823568 1.57502,0 1.71257,0.05301 2.78509,1.073274 0.92615,0.881023 1.17774,1.005594 1.40453,0.695442 0.15195,-0.207809 0.73743,-0.690783 1.30106,-1.073275 1.34314,-0.911479 4.03454,-0.991163 5.3981,-0.159819 1.63585,0.997347 1.89045,2.070651 1.89704,7.99719 l 0.006,5.22552 h -1.2768 c -0.99252,0 -1.40488,-0.136339 -1.85208,-0.612364 -0.53946,-0.574226 -0.57529,-0.86718 -0.57529,-4.703628 0,-4.59918 -0.20211,-5.26734 -1.59329,-5.26734 -1.03581,0 -2.55249,1.362085 -2.89672,2.601455 -0.14825,0.53373 -0.2702,2.547997 -0.27101,4.476148 l -0.002,3.505729 h -1.85208 -1.85208 V 73.99465 c 0,-4.247528 -0.0414,-4.647178 -0.54837,-5.291666 -0.63464,-0.806807 -1.54075,-0.90075 -2.51718,-0.260975 -1.2986,0.850877 -1.55407,1.761123 -1.69693,6.046126 l -0.13232,3.96875 -1.79043,0.07834 -1.79042,0.07834 z M 96.93128,62.858486 c -1.070613,-1.07061 -0.85725,-2.796857 0.427823,-3.461395 1.75205,-0.906019 3.420657,0.03837 3.420657,1.936014 0,2.022951 -2.399749,2.974115 -3.84848,1.525381 z"
       id="path951" />
  </g>
</svg>